<?xml version="1.0" encoding="UTF-8"?>
<!DOCTYPE svg PUBLIC "-//W3C//DTD SVG 1.1//EN" "http://www.w3.org/Graphics/SVG/1.1/DTD/svg11.dtd">
<svg xmlns="http://www.w3.org/2000/svg" version="1.1" width="617px" height="626px" style="shape-rendering:geometricPrecision; text-rendering:geometricPrecision; image-rendering:optimizeQuality; fill-rule:evenodd; clip-rule:evenodd" xmlns:xlink="http://www.w3.org/1999/xlink">
<g><path style="opacity:0.975" fill="#030202" d="M 3.5,-0.5 C 206.5,-0.5 409.5,-0.5 612.5,-0.5C 612.859,1.37099 613.859,2.87099 615.5,4C 614.288,5.10682 614.621,5.60682 616.5,5.5C 616.5,22.5 616.5,39.5 616.5,56.5C 614.899,55.3572 614.233,56.0239 614.5,58.5C 614.901,62.0242 615.567,65.3576 616.5,68.5C 616.5,87.8333 616.5,107.167 616.5,126.5C 615.624,126.369 614.957,126.702 614.5,127.5C 615.833,129.5 615.833,131.5 614.5,133.5C 614.957,134.298 615.624,134.631 616.5,134.5C 616.5,193.833 616.5,253.167 616.5,312.5C 614.899,311.357 614.233,312.024 614.5,314.5C 614.901,318.024 615.567,321.358 616.5,324.5C 616.5,343.833 616.5,363.167 616.5,382.5C 615.624,382.369 614.957,382.702 614.5,383.5C 615.833,385.5 615.833,387.5 614.5,389.5C 614.957,390.298 615.624,390.631 616.5,390.5C 616.5,449.833 616.5,509.167 616.5,568.5C 614.899,567.357 614.233,568.024 614.5,570.5C 614.901,574.024 615.567,577.358 616.5,580.5C 616.5,594.167 616.5,607.833 616.5,621.5C 613.996,622.584 611.663,623.917 609.5,625.5C 605.833,625.5 602.167,625.5 598.5,625.5C 595.201,622.954 591.868,622.954 588.5,625.5C 587.167,625.5 585.833,625.5 584.5,625.5C 584.03,624.307 583.03,623.64 581.5,623.5C 577.524,622.558 573.524,622.391 569.5,623C 568.244,623.417 567.577,624.25 567.5,625.5C 563.167,625.5 558.833,625.5 554.5,625.5C 553.866,624.053 552.699,623.387 551,623.5C 549.624,623.684 548.791,624.351 548.5,625.5C 529.5,625.5 510.5,625.5 491.5,625.5C 488.994,624.824 486.494,623.824 484,622.5C 483.05,623.022 482.216,623.689 481.5,624.5C 478.572,623.238 475.906,623.571 473.5,625.5C 469.167,625.5 464.833,625.5 460.5,625.5C 455.228,624.857 449.895,623.857 444.5,622.5C 440.878,622.952 437.545,623.952 434.5,625.5C 414.5,625.5 394.5,625.5 374.5,625.5C 374.047,624.542 373.381,623.708 372.5,623C 369.183,622.502 365.85,622.335 362.5,622.5C 362.5,623.5 362.5,624.5 362.5,625.5C 355.833,625.5 349.167,625.5 342.5,625.5C 339.201,622.954 335.868,622.954 332.5,625.5C 331.167,625.5 329.833,625.5 328.5,625.5C 328.03,624.307 327.03,623.64 325.5,623.5C 321.524,622.558 317.524,622.391 313.5,623C 312.244,623.417 311.577,624.25 311.5,625.5C 307.167,625.5 302.833,625.5 298.5,625.5C 297.866,624.053 296.699,623.387 295,623.5C 293.624,623.684 292.791,624.351 292.5,625.5C 273.5,625.5 254.5,625.5 235.5,625.5C 232.994,624.824 230.494,623.824 228,622.5C 227.05,623.022 226.216,623.689 225.5,624.5C 222.572,623.238 219.906,623.571 217.5,625.5C 213.167,625.5 208.833,625.5 204.5,625.5C 199.228,624.857 193.895,623.857 188.5,622.5C 184.878,622.952 181.545,623.952 178.5,625.5C 158.5,625.5 138.5,625.5 118.5,625.5C 118.047,624.542 117.381,623.708 116.5,623C 113.183,622.502 109.85,622.335 106.5,622.5C 106.5,623.5 106.5,624.5 106.5,625.5C 99.8333,625.5 93.1667,625.5 86.5,625.5C 83.2012,622.954 79.8678,622.954 76.5,625.5C 75.1667,625.5 73.8333,625.5 72.5,625.5C 72.0296,624.307 71.0296,623.64 69.5,623.5C 65.5237,622.558 61.5237,622.391 57.5,623C 56.244,623.417 55.5774,624.25 55.5,625.5C 51.1667,625.5 46.8333,625.5 42.5,625.5C 41.8658,624.053 40.6991,623.387 39,623.5C 37.6244,623.684 36.7911,624.351 36.5,625.5C 26.8333,625.5 17.1667,625.5 7.5,625.5C 5.62642,624.715 3.62642,624.048 1.5,623.5C 1.01131,622.005 0.344644,620.671 -0.5,619.5C -0.5,594.833 -0.5,570.167 -0.5,545.5C 0.833333,545.167 0.833333,544.833 -0.5,544.5C -0.5,537.167 -0.5,529.833 -0.5,522.5C 0.833333,522.167 0.833333,521.833 -0.5,521.5C -0.5,512.833 -0.5,504.167 -0.5,495.5C 0.833333,495.167 0.833333,494.833 -0.5,494.5C -0.5,466.833 -0.5,439.167 -0.5,411.5C 0.833333,411.167 0.833333,410.833 -0.5,410.5C -0.5,405.167 -0.5,399.833 -0.5,394.5C 0.649912,395.85 1.31658,395.684 1.5,394C 1.10099,392.272 0.434327,390.772 -0.5,389.5C -0.5,356.167 -0.5,322.833 -0.5,289.5C 0.833333,289.167 0.833333,288.833 -0.5,288.5C -0.5,281.167 -0.5,273.833 -0.5,266.5C 0.833333,266.167 0.833333,265.833 -0.5,265.5C -0.5,256.833 -0.5,248.167 -0.5,239.5C 0.833333,239.167 0.833333,238.833 -0.5,238.5C -0.5,210.833 -0.5,183.167 -0.5,155.5C 0.833333,155.167 0.833333,154.833 -0.5,154.5C -0.5,149.167 -0.5,143.833 -0.5,138.5C 0.649912,139.85 1.31658,139.684 1.5,138C 1.10099,136.272 0.434327,134.772 -0.5,133.5C -0.5,100.167 -0.5,66.8333 -0.5,33.5C 0.833333,33.1667 0.833333,32.8333 -0.5,32.5C -0.5,25.1667 -0.5,17.8333 -0.5,10.5C 0.833333,10.1667 0.833333,9.83333 -0.5,9.5C -0.5,7.83333 -0.5,6.16667 -0.5,4.5C 0.130331,2.2929 1.46366,0.626234 3.5,-0.5 Z"/></g>
<g><path style="opacity:0.008" fill="#a4a4a4" d="M 612.5,-0.5 C 612.833,-0.5 613.167,-0.5 613.5,-0.5C 614.5,0.5 615.5,1.5 616.5,2.5C 616.5,3.5 616.5,4.5 616.5,5.5C 614.621,5.60682 614.288,5.10682 615.5,4C 613.859,2.87099 612.859,1.37099 612.5,-0.5 Z"/></g>
<g><path style="opacity:1" fill="#fb0000" d="M 283.5,597.5 C 278.056,596.116 272.389,595.45 266.5,595.5C 228.757,590.086 193.757,577.253 161.5,557C 69.3825,497.295 23.3825,412.129 23.5,301.5C 27.5508,211.233 64.2175,137.399 133.5,80C 219.215,17.1066 312.215,3.7733 412.5,40C 492.158,73.3249 546.991,130.492 577,211.5C 610.901,319.474 591.901,416.807 520,503.5C 466.4,561.712 399.9,593.212 320.5,598C 308.091,598.812 295.758,598.645 283.5,597.5 Z"/></g>
<g><path style="opacity:1" fill="#000000" d="M 387.5,49.5 C 398.352,48.8566 409.019,49.8566 419.5,52.5C 371.224,68.0214 342.057,100.688 332,150.5C 331.169,157.524 331.336,164.524 332.5,171.5C 429.337,198.527 468.504,261.527 450,360.5C 424.941,436.863 372.108,474.363 291.5,473C 248.505,467.423 213.338,447.923 186,414.5C 155.941,374.295 142.941,328.962 147,278.5C 161.245,181.268 213.079,112.434 302.5,72C 329.814,60.2561 358.148,52.7561 387.5,49.5 Z"/></g>
<g><path style="opacity:0.02" fill="#686868" d="M 616.5,56.5 C 616.5,60.5 616.5,64.5 616.5,68.5C 615.567,65.3576 614.901,62.0242 614.5,58.5C 614.233,56.0239 614.899,55.3572 616.5,56.5 Z"/></g>
<g><path style="opacity:0.02" fill="#696969" d="M 616.5,126.5 C 616.5,129.167 616.5,131.833 616.5,134.5C 615.624,134.631 614.957,134.298 614.5,133.5C 615.833,131.5 615.833,129.5 614.5,127.5C 614.957,126.702 615.624,126.369 616.5,126.5 Z"/></g>
<g><path style="opacity:0.02" fill="#767676" d="M -0.5,133.5 C 0.434327,134.772 1.10099,136.272 1.5,138C 1.31658,139.684 0.649912,139.85 -0.5,138.5C -0.5,136.833 -0.5,135.167 -0.5,133.5 Z"/></g>
<g><path style="opacity:0.02" fill="#686868" d="M 616.5,312.5 C 616.5,316.5 616.5,320.5 616.5,324.5C 615.567,321.358 614.901,318.024 614.5,314.5C 614.233,312.024 614.899,311.357 616.5,312.5 Z"/></g>
<g><path style="opacity:0.02" fill="#696969" d="M 616.5,382.5 C 616.5,385.167 616.5,387.833 616.5,390.5C 615.624,390.631 614.957,390.298 614.5,389.5C 615.833,387.5 615.833,385.5 614.5,383.5C 614.957,382.702 615.624,382.369 616.5,382.5 Z"/></g>
<g><path style="opacity:0.02" fill="#767676" d="M -0.5,389.5 C 0.434327,390.772 1.10099,392.272 1.5,394C 1.31658,395.684 0.649912,395.85 -0.5,394.5C -0.5,392.833 -0.5,391.167 -0.5,389.5 Z"/></g>
<g><path style="opacity:0.02" fill="#686868" d="M 616.5,568.5 C 616.5,572.5 616.5,576.5 616.5,580.5C 615.567,577.358 614.901,574.024 614.5,570.5C 614.233,568.024 614.899,567.357 616.5,568.5 Z"/></g>
<g><path style="opacity:1" fill="#b00003" d="M 266.5,595.5 C 272.389,595.45 278.056,596.116 283.5,597.5C 277.611,597.55 271.944,596.884 266.5,595.5 Z"/></g>
<g><path style="opacity:0.051" fill="#404040" d="M 72.5,625.5 C 66.8333,625.5 61.1667,625.5 55.5,625.5C 55.5774,624.25 56.244,623.417 57.5,623C 61.5237,622.391 65.5237,622.558 69.5,623.5C 71.0296,623.64 72.0296,624.307 72.5,625.5 Z"/></g>
<g><path style="opacity:0.051" fill="#3a3a3a" d="M 118.5,625.5 C 114.5,625.5 110.5,625.5 106.5,625.5C 106.5,624.5 106.5,623.5 106.5,622.5C 109.85,622.335 113.183,622.502 116.5,623C 117.381,623.708 118.047,624.542 118.5,625.5 Z"/></g>
<g><path style="opacity:0.051" fill="#404040" d="M 328.5,625.5 C 322.833,625.5 317.167,625.5 311.5,625.5C 311.577,624.25 312.244,623.417 313.5,623C 317.524,622.391 321.524,622.558 325.5,623.5C 327.03,623.64 328.03,624.307 328.5,625.5 Z"/></g>
<g><path style="opacity:0.051" fill="#3a3a3a" d="M 374.5,625.5 C 370.5,625.5 366.5,625.5 362.5,625.5C 362.5,624.5 362.5,623.5 362.5,622.5C 365.85,622.335 369.183,622.502 372.5,623C 373.381,623.708 374.047,624.542 374.5,625.5 Z"/></g>
<g><path style="opacity:0.051" fill="#404040" d="M 584.5,625.5 C 578.833,625.5 573.167,625.5 567.5,625.5C 567.577,624.25 568.244,623.417 569.5,623C 573.524,622.391 577.524,622.558 581.5,623.5C 583.03,623.64 584.03,624.307 584.5,625.5 Z"/></g>
<g><path style="opacity:0.004" fill="#fefffe" d="M 1.5,623.5 C 3.62642,624.048 5.62642,624.715 7.5,625.5C 5.5,625.5 3.5,625.5 1.5,625.5C 1.5,624.833 1.5,624.167 1.5,623.5 Z"/></g>
<g><path style="opacity:0.02" fill="#7e7e7e" d="M 42.5,625.5 C 40.5,625.5 38.5,625.5 36.5,625.5C 36.7911,624.351 37.6244,623.684 39,623.5C 40.6991,623.387 41.8658,624.053 42.5,625.5 Z"/></g>
<g><path style="opacity:0.024" fill="#737373" d="M 86.5,625.5 C 83.1667,625.5 79.8333,625.5 76.5,625.5C 79.8678,622.954 83.2012,622.954 86.5,625.5 Z"/></g>
<g><path style="opacity:0.016" fill="#646464" d="M 204.5,625.5 C 195.833,625.5 187.167,625.5 178.5,625.5C 181.545,623.952 184.878,622.952 188.5,622.5C 193.895,623.857 199.228,624.857 204.5,625.5 Z"/></g>
<g><path style="opacity:0.016" fill="#5f5f5f" d="M 235.5,625.5 C 229.5,625.5 223.5,625.5 217.5,625.5C 219.906,623.571 222.572,623.238 225.5,624.5C 226.216,623.689 227.05,623.022 228,622.5C 230.494,623.824 232.994,624.824 235.5,625.5 Z"/></g>
<g><path style="opacity:0.02" fill="#7e7e7e" d="M 298.5,625.5 C 296.5,625.5 294.5,625.5 292.5,625.5C 292.791,624.351 293.624,623.684 295,623.5C 296.699,623.387 297.866,624.053 298.5,625.5 Z"/></g>
<g><path style="opacity:0.024" fill="#737373" d="M 342.5,625.5 C 339.167,625.5 335.833,625.5 332.5,625.5C 335.868,622.954 339.201,622.954 342.5,625.5 Z"/></g>
<g><path style="opacity:0.016" fill="#646464" d="M 460.5,625.5 C 451.833,625.5 443.167,625.5 434.5,625.5C 437.545,623.952 440.878,622.952 444.5,622.5C 449.895,623.857 455.228,624.857 460.5,625.5 Z"/></g>
<g><path style="opacity:0.016" fill="#5f5f5f" d="M 491.5,625.5 C 485.5,625.5 479.5,625.5 473.5,625.5C 475.906,623.571 478.572,623.238 481.5,624.5C 482.216,623.689 483.05,623.022 484,622.5C 486.494,623.824 488.994,624.824 491.5,625.5 Z"/></g>
<g><path style="opacity:0.02" fill="#7e7e7e" d="M 554.5,625.5 C 552.5,625.5 550.5,625.5 548.5,625.5C 548.791,624.351 549.624,623.684 551,623.5C 552.699,623.387 553.866,624.053 554.5,625.5 Z"/></g>
<g><path style="opacity:0.024" fill="#737373" d="M 598.5,625.5 C 595.167,625.5 591.833,625.5 588.5,625.5C 591.868,622.954 595.201,622.954 598.5,625.5 Z"/></g>
<g><path style="opacity:0.008" fill="#8c8c8c" d="M 616.5,621.5 C 616.5,622.167 616.5,622.833 616.5,623.5C 614.847,623.66 613.514,624.326 612.5,625.5C 611.5,625.5 610.5,625.5 609.5,625.5C 611.663,623.917 613.996,622.584 616.5,621.5 Z"/></g>
</svg>
