<?xml version="1.0" encoding="UTF-8"?>
<!DOCTYPE svg PUBLIC "-//W3C//DTD SVG 1.1//EN" "http://www.w3.org/Graphics/SVG/1.1/DTD/svg11.dtd">
<svg xmlns="http://www.w3.org/2000/svg" version="1.1" width="597px" height="602px" style="shape-rendering:geometricPrecision; text-rendering:geometricPrecision; image-rendering:optimizeQuality; fill-rule:evenodd; clip-rule:evenodd" xmlns:xlink="http://www.w3.org/1999/xlink">
<g><path style="opacity:1" fill="#fefefe" d="M -0.5,-0.5 C 198.5,-0.5 397.5,-0.5 596.5,-0.5C 596.5,200.167 596.5,400.833 596.5,601.5C 397.5,601.5 198.5,601.5 -0.5,601.5C -0.5,400.833 -0.5,200.167 -0.5,-0.5 Z"/></g>
<g><path style="opacity:1" fill="#ff0107" d="M 276.5,11.5 C 371.935,7.65575 451.435,40.9891 515,111.5C 582.735,196.825 600.735,291.825 569,396.5C 524.687,512.923 440.52,577.756 316.5,591C 248.472,595.999 187.139,578.332 132.5,538C 60.8769,484.62 21.0436,413.12 13,323.5C 7.91808,218.675 46.0847,133.509 127.5,68C 171.955,35.4588 221.622,16.6255 276.5,11.5 Z"/></g>
<g><path style="opacity:1" fill="#fefefe" d="M 372.5,41.5 C 383.505,41.3335 394.505,41.5002 405.5,42C 407.044,42.2896 408.377,42.9563 409.5,44C 360.859,59.6356 331.692,92.469 322,142.5C 321.333,149.5 321.333,156.5 322,163.5C 417.599,189.018 457.599,250.684 442,348.5C 419.778,424.705 368.945,464.039 289.5,466.5C 258.785,465.138 231.118,455.305 206.5,437C 163.477,403.465 139.977,359.298 136,304.5C 134.678,223.652 164.511,156.819 225.5,104C 268.73,69.6441 317.73,48.8108 372.5,41.5 Z"/></g>
</svg>
