<?xml version="1.0" encoding="UTF-8"?>
<!DOCTYPE svg PUBLIC "-//W3C//DTD SVG 1.1//EN" "http://www.w3.org/Graphics/SVG/1.1/DTD/svg11.dtd">
<svg xmlns="http://www.w3.org/2000/svg" version="1.1" width="200px" height="200px" style="shape-rendering:geometricPrecision; text-rendering:geometricPrecision; image-rendering:optimizeQuality; fill-rule:evenodd; clip-rule:evenodd" xmlns:xlink="http://www.w3.org/1999/xlink">
<g><path style="opacity:0.991" fill="#f70402" d="M 130.5,42.5 C 126.605,42.7965 125.938,44.1299 128.5,46.5C 127.245,48.7802 125.245,49.9468 122.5,50C 123.337,51.0113 123.67,52.1779 123.5,53.5C 127.498,54.8284 131.498,56.1618 135.5,57.5C 135.5,63.5 135.5,69.5 135.5,75.5C 134.167,75.5 132.833,75.5 131.5,75.5C 131.5,76.8333 131.5,78.1667 131.5,79.5C 130.127,79.3433 128.793,79.51 127.5,80C 125.798,81.5916 124.132,83.0916 122.5,84.5C 130.538,68.4481 127.205,55.4481 112.5,45.5C 111.329,44.6554 109.995,43.9887 108.5,43.5C 91.7976,39.7315 80.2976,45.7315 74,61.5C 71.8865,85.8866 83.0532,97.22 107.5,95.5C 106.524,96.8149 105.524,98.1482 104.5,99.5C 103.549,98.6744 102.549,98.5078 101.5,99C 101.833,99.3333 102.167,99.6667 102.5,100C 106.821,100.499 111.154,100.666 115.5,100.5C 106.393,102.225 97.06,102.892 87.5,102.5C 77.213,101.507 67.5463,98.5074 58.5,93.5C 57.5358,91.5953 55.8691,90.5953 53.5,90.5C 51.0905,91.7007 49.0905,93.3674 47.5,95.5C 46.2741,105.176 46.2741,114.843 47.5,124.5C 46.5,124.5 45.5,124.5 44.5,124.5C 43.1266,124.657 41.7932,124.49 40.5,124C 38.0036,121.418 36.0036,118.585 34.5,115.5C 30.7914,89.791 38.1248,67.9577 56.5,50C 77.0621,33.8235 99.7288,30.1568 124.5,39C 126.727,39.941 128.727,41.1077 130.5,42.5 Z"/></g>
<g><path style="opacity:0.994" fill="#fa0100" d="M 130.5,42.5 C 144.266,49.4371 154.1,60.1037 160,74.5C 164.106,87.8415 165.606,101.508 164.5,115.5C 163.568,118.957 161.568,121.79 158.5,124C 157.552,124.483 156.552,124.649 155.5,124.5C 154.5,124.5 153.5,124.5 152.5,124.5C 152.5,113.5 152.5,102.5 152.5,91.5C 148.524,90.6693 144.524,90.5027 140.5,91C 139.167,91.6667 138.167,92.6667 137.5,94C 129.811,95.7506 122.478,97.9173 115.5,100.5C 111.154,100.666 106.821,100.499 102.5,100C 102.167,99.6667 101.833,99.3333 101.5,99C 102.549,98.5078 103.549,98.6744 104.5,99.5C 105.524,98.1482 106.524,96.8149 107.5,95.5C 110.142,94.1048 112.809,92.6048 115.5,91C 117.703,88.6278 120.037,86.4611 122.5,84.5C 124.132,83.0916 125.798,81.5916 127.5,80C 128.793,79.51 130.127,79.3433 131.5,79.5C 131.5,78.1667 131.5,76.8333 131.5,75.5C 132.833,75.5 134.167,75.5 135.5,75.5C 135.5,69.5 135.5,63.5 135.5,57.5C 131.498,56.1618 127.498,54.8284 123.5,53.5C 123.67,52.1779 123.337,51.0113 122.5,50C 125.245,49.9468 127.245,48.7802 128.5,46.5C 125.938,44.1299 126.605,42.7965 130.5,42.5 Z"/></g>
<g><path style="opacity:1" fill="#e5706f" d="M 108.5,43.5 C 109.995,43.9887 111.329,44.6554 112.5,45.5C 110.708,45.366 109.042,45.6993 107.5,46.5C 106.791,45.596 105.791,45.2627 104.5,45.5C 105.833,44.8333 107.167,44.1667 108.5,43.5 Z"/></g>
<g><path style="opacity:1" fill="#fdf7f5" d="M 108.5,43.5 C 107.167,44.1667 105.833,44.8333 104.5,45.5C 86.5542,51.056 81.3876,62.3893 89,79.5C 95.4707,84.2087 102.304,84.7087 109.5,81C 117.996,69.2814 115.663,60.4481 102.5,54.5C 103.179,51.127 104.846,48.4604 107.5,46.5C 109.042,45.6993 110.708,45.366 112.5,45.5C 127.205,55.4481 130.538,68.4481 122.5,84.5C 120.037,86.4611 117.703,88.6278 115.5,91C 112.809,92.6048 110.142,94.1048 107.5,95.5C 83.0532,97.22 71.8865,85.8866 74,61.5C 80.2976,45.7315 91.7976,39.7315 108.5,43.5 Z"/></g>
<g><path style="opacity:1" fill="#f50604" d="M 104.5,45.5 C 105.791,45.2627 106.791,45.596 107.5,46.5C 104.846,48.4604 103.179,51.127 102.5,54.5C 115.663,60.4481 117.996,69.2814 109.5,81C 102.304,84.7087 95.4707,84.2087 89,79.5C 81.3876,62.3893 86.5542,51.056 104.5,45.5 Z"/></g>
<g><path style="opacity:1" fill="#d89094" d="M 151.5,119.5 C 151.167,119.5 150.833,119.5 150.5,119.5C 150.779,114.405 150.445,109.405 149.5,104.5C 149.846,101.398 149.179,98.5645 147.5,96C 143.507,95.8297 139.507,95.9963 135.5,96.5C 138.172,94.7404 141.005,93.0738 144,91.5C 147.217,92.9433 149.55,95.2766 151,98.5C 151.5,105.492 151.666,112.492 151.5,119.5 Z"/></g>
<g><path style="opacity:1" fill="#dd0504" d="M 155.5,124.5 C 154.432,125.434 153.099,125.768 151.5,125.5C 151.5,123.5 151.5,121.5 151.5,119.5C 151.666,112.492 151.5,105.492 151,98.5C 149.55,95.2766 147.217,92.9433 144,91.5C 141.005,93.0738 138.172,94.7404 135.5,96.5C 129.054,98.662 122.387,99.9953 115.5,100.5C 122.478,97.9173 129.811,95.7506 137.5,94C 138.167,92.6667 139.167,91.6667 140.5,91C 144.524,90.5027 148.524,90.6693 152.5,91.5C 152.5,102.5 152.5,113.5 152.5,124.5C 153.5,124.5 154.5,124.5 155.5,124.5 Z"/></g>
<g><path style="opacity:1" fill="#dc130f" d="M 58.5,93.5 C 55.114,91.6795 52.4473,92.3461 50.5,95.5C 49.8333,95.5 49.5,95.8333 49.5,96.5C 48.5067,105.318 48.1734,114.318 48.5,123.5C 48.38,124.586 47.7133,125.253 46.5,125.5C 45.5836,125.457 44.9169,125.124 44.5,124.5C 45.5,124.5 46.5,124.5 47.5,124.5C 46.2741,114.843 46.2741,105.176 47.5,95.5C 49.0905,93.3674 51.0905,91.7007 53.5,90.5C 55.8691,90.5953 57.5358,91.5953 58.5,93.5 Z"/></g>
<g><path style="opacity:1" fill="#b6b3b4" d="M 58.5,93.5 C 67.5463,98.5074 77.213,101.507 87.5,102.5C 90.9377,103.823 94.771,104.49 99,104.5C 107.163,103.881 115.329,102.881 123.5,101.5C 127.869,100.171 131.869,98.5044 135.5,96.5C 139.507,95.9963 143.507,95.8297 147.5,96C 149.179,98.5645 149.846,101.398 149.5,104.5C 148.883,104.389 148.383,104.056 148,103.5C 141.139,105.263 134.306,107.43 127.5,110C 129.727,110.704 130.06,111.871 128.5,113.5C 124.264,107.678 119.264,107.012 113.5,111.5C 113.489,108.999 112.822,108.832 111.5,111C 104.167,111.667 96.8333,111.667 89.5,111C 87.1253,108.593 86.1253,109.093 86.5,112.5C 82.6598,107.399 77.9931,106.399 72.5,109.5C 68.3397,105.817 63.5064,103.15 58,101.5C 56.6349,101.844 55.4682,102.511 54.5,103.5C 53.1841,100.972 52.0174,100.972 51,103.5C 50.5026,100.854 50.3359,98.1873 50.5,95.5C 52.4473,92.3461 55.114,91.6795 58.5,93.5 Z"/></g>
<g><path style="opacity:1" fill="#c89d9d" d="M 135.5,96.5 C 131.869,98.5044 127.869,100.171 123.5,101.5C 115.329,102.881 107.163,103.881 99,104.5C 94.771,104.49 90.9377,103.823 87.5,102.5C 97.06,102.892 106.393,102.225 115.5,100.5C 122.387,99.9953 129.054,98.662 135.5,96.5 Z"/></g>
<g><path style="opacity:1" fill="#4c4e50" d="M 128.5,113.5 C 129.42,118.219 127.753,121.552 123.5,123.5C 114.694,124.029 111.361,120.029 113.5,111.5C 119.264,107.012 124.264,107.678 128.5,113.5 Z"/></g>
<g><path style="opacity:1" fill="#faacaa" d="M 49.5,96.5 C 49.1736,105.349 49.507,114.016 50.5,122.5C 51.299,125.43 51.6323,128.43 51.5,131.5C 50.5,128.833 49.5,126.167 48.5,123.5C 48.1734,114.318 48.5067,105.318 49.5,96.5 Z"/></g>
<g><path style="opacity:1" fill="#e7e7e7" d="M 50.5,95.5 C 50.3359,98.1873 50.5026,100.854 51,103.5C 52.0174,100.972 53.1841,100.972 54.5,103.5C 55.4682,102.511 56.6349,101.844 58,101.5C 63.5064,103.15 68.3397,105.817 72.5,109.5C 69.2221,114.661 69.8888,119.161 74.5,123C 83.0133,124.653 87.0133,121.153 86.5,112.5C 86.1253,109.093 87.1253,108.593 89.5,111C 96.8333,111.667 104.167,111.667 111.5,111C 112.822,108.832 113.489,108.999 113.5,111.5C 111.361,120.029 114.694,124.029 123.5,123.5C 123.525,126.179 124.858,127.512 127.5,127.5C 127.664,130.187 127.497,132.854 127,135.5C 126.302,136.691 125.469,137.691 124.5,138.5C 111.254,150.855 96.587,152.689 80.5,144C 77.9893,142.152 75.4893,140.319 73,138.5C 70.9803,139.032 70.147,140.365 70.5,142.5C 66.2315,143.373 61.8982,143.706 57.5,143.5C 57.5,141.5 57.5,139.5 57.5,137.5C 56.0222,137.762 54.6888,137.429 53.5,136.5C 53.7093,135.914 54.0426,135.414 54.5,135C 52.7815,131.49 51.9481,127.656 52,123.5C 51.6174,122.944 51.1174,122.611 50.5,122.5C 49.507,114.016 49.1736,105.349 49.5,96.5C 49.5,95.8333 49.8333,95.5 50.5,95.5 Z"/></g>
<g><path style="opacity:1" fill="#4d4f50" d="M 86.5,112.5 C 87.0133,121.153 83.0133,124.653 74.5,123C 69.8888,119.161 69.2221,114.661 72.5,109.5C 77.9931,106.399 82.6598,107.399 86.5,112.5 Z"/></g>
<g><path style="opacity:0.971" fill="#ac0404" d="M 164.5,115.5 C 164.444,126.221 159.111,132.221 148.5,133.5C 147.957,133.44 147.624,133.107 147.5,132.5C 149.29,128.342 150.29,124.009 150.5,119.5C 150.833,119.5 151.167,119.5 151.5,119.5C 151.5,121.5 151.5,123.5 151.5,125.5C 153.099,125.768 154.432,125.434 155.5,124.5C 156.552,124.649 157.552,124.483 158.5,124C 161.568,121.79 163.568,118.957 164.5,115.5 Z"/></g>
<g><path style="opacity:0.963" fill="#a80305" d="M 34.5,115.5 C 36.0036,118.585 38.0036,121.418 40.5,124C 41.7932,124.49 43.1266,124.657 44.5,124.5C 44.9169,125.124 45.5836,125.457 46.5,125.5C 47.7133,125.253 48.38,124.586 48.5,123.5C 49.5,126.167 50.5,128.833 51.5,131.5C 51.6716,132.492 51.3382,133.158 50.5,133.5C 39.9378,132.266 34.6045,126.266 34.5,115.5 Z"/></g>
<g><path style="opacity:0.96" fill="#e9e8e8" d="M 149.5,104.5 C 150.445,109.405 150.779,114.405 150.5,119.5C 150.29,124.009 149.29,128.342 147.5,132.5C 147.624,133.107 147.957,133.44 148.5,133.5C 136.398,159.553 116.065,170.387 87.5,166C 69.6966,161.362 57.3633,150.528 50.5,133.5C 51.3382,133.158 51.6716,132.492 51.5,131.5C 51.6323,128.43 51.299,125.43 50.5,122.5C 51.1174,122.611 51.6174,122.944 52,123.5C 51.9481,127.656 52.7815,131.49 54.5,135C 54.0426,135.414 53.7093,135.914 53.5,136.5C 54.6888,137.429 56.0222,137.762 57.5,137.5C 57.5,139.5 57.5,141.5 57.5,143.5C 61.8982,143.706 66.2315,143.373 70.5,142.5C 86.9619,156.772 104.629,158.272 123.5,147C 125.557,145.281 127.224,143.281 128.5,141C 127.968,138.98 126.635,138.147 124.5,138.5C 125.469,137.691 126.302,136.691 127,135.5C 127.497,132.854 127.664,130.187 127.5,127.5C 124.858,127.512 123.525,126.179 123.5,123.5C 127.753,121.552 129.42,118.219 128.5,113.5C 130.06,111.871 129.727,110.704 127.5,110C 134.306,107.43 141.139,105.263 148,103.5C 148.383,104.056 148.883,104.389 149.5,104.5 Z"/></g>
<g><path style="opacity:1" fill="#525252" d="M 124.5,138.5 C 126.635,138.147 127.968,138.98 128.5,141C 127.224,143.281 125.557,145.281 123.5,147C 104.629,158.272 86.9619,156.772 70.5,142.5C 70.147,140.365 70.9803,139.032 73,138.5C 75.4893,140.319 77.9893,142.152 80.5,144C 96.587,152.689 111.254,150.855 124.5,138.5 Z"/></g>
</svg>
