<svg xmlns="http://www.w3.org/2000/svg" width="32" height="32">
    <path style="stroke:none;fill-rule:nonzero;fill:#000;fill-opacity:1" d="M2.668 29.203V.691h26.664v28.512l-2.55 2.55-1.794-1.347c-.988-.738-1.824-1.355-1.86-1.367-.034-.012-.855.574-1.82 1.3l-1.761 1.317-1.774-1.324c-1.101-.82-1.8-1.309-1.84-1.285-.038.02-.835.621-1.777 1.332l-1.71 1.289-1.774-1.332c-.973-.73-1.79-1.32-1.809-1.313-.02.008-.847.63-1.84 1.372L5.22 31.754Zm24-13.469V3.31H5.332v12.425c0 10.672.012 12.434.078 12.457.043.02.762-.484 1.77-1.242l1.699-1.273L10.652 27c1.106.824 1.801 1.313 1.844 1.285.035-.02.832-.62 1.774-1.328l1.71-1.293 1.77 1.328c.973.73 1.781 1.328 1.797 1.328.015 0 .824-.597 1.797-1.328l1.77-1.328 1.698 1.281c1.016.758 1.735 1.266 1.778 1.246.066-.023.078-1.785.078-12.457ZM13.332 11.31V8.69H24v2.618Zm0 5.332v-2.614H24v2.614Zm0 5.332v-2.614H24v2.614ZM8 11.309V8.69h2.668v2.618Zm0 5.332v-2.614h2.668v2.614Zm0 5.332v-2.614h2.668v2.614Zm0 0"/>
</svg>
